<?xml version="1.0" encoding="UTF-8" standalone="no"?>
<svg
   xmlns:dc="http://purl.org/dc/elements/1.1/"
   xmlns:cc="http://creativecommons.org/ns#"
   xmlns:rdf="http://www.w3.org/1999/02/22-rdf-syntax-ns#"
   xmlns:svg="http://www.w3.org/2000/svg"
   xmlns="http://www.w3.org/2000/svg"
   xmlns:sodipodi="http://sodipodi.sourceforge.net/DTD/sodipodi-0.dtd"
   xmlns:inkscape="http://www.inkscape.org/namespaces/inkscape"
   version="1.1"
   x="0px"
   y="0px"
   viewBox="0 0 320 320"
   xml:space="preserve"
   id="svg12"
   sodipodi:docname="icon.svg"
   inkscape:version="0.92.2 (unknown)"
   width="320"
   height="320"><metadata
     id="metadata18"><rdf:RDF><cc:Work
         rdf:about=""><dc:format>image/svg+xml</dc:format><dc:type
           rdf:resource="http://purl.org/dc/dcmitype/StillImage" /><dc:title /></cc:Work></rdf:RDF></metadata><defs
     id="defs16" /><sodipodi:namedview
     pagecolor="#ffffff"
     bordercolor="#666666"
     borderopacity="1"
     objecttolerance="10"
     gridtolerance="10"
     guidetolerance="10"
     inkscape:pageopacity="0"
     inkscape:pageshadow="2"
     inkscape:window-width="1855"
     inkscape:window-height="1056"
     id="namedview14"
     showgrid="false"
     inkscape:zoom="1.9489631"
     inkscape:cx="77.097506"
     inkscape:cy="160"
     inkscape:window-x="65"
     inkscape:window-y="24"
     inkscape:window-maximized="1"
     inkscape:current-layer="svg12" /><g
     id="g6"
     transform="matrix(0.91661095,0,0,0.91661095,42.719629,42.643937)"
     style="stroke-width:1.0909754"><path
       d="M 161.5,21.7 C 148.1,12.6 131.9,9.3 115.9,12.4 100,15.5 86.2,24.6 77.2,38 68.1,51.4 64.8,67.6 67.9,83.6 c 3.1,15.9 12.2,29.7 25.6,38.8 10.3,6.9 22.2,10.3 34,10.3 14.6,0 29.1,-5.2 40.4,-15.3 0,0 0,0 0,0 l 31.9,21.6 c 2.5,1.7 5.4,2.6 8.3,2.6 1,0 1.9,-0.1 2.9,-0.3 3.9,-0.8 7.3,-3 9.5,-6.3 2.2,-3.3 3.1,-7.3 2.3,-11.2 -0.8,-3.9 -3,-7.3 -6.3,-9.5 L 184.6,92.7 c 9.5,-26.3 0.2,-55.2 -23.1,-71 z m 52.8,95.7 c 2.5,1.7 4.1,4.2 4.7,7.1 0.6,2.9 0,5.8 -1.7,8.3 -1.7,2.5 -4.2,4.1 -7.1,4.7 -2.9,0.6 -5.9,0 -8.3,-1.7 L 170,114.2 c -0.3,-0.2 -0.6,-0.4 -0.9,-0.7 0,0 -0.1,-0.1 -0.1,-0.1 -0.2,-0.1 -0.3,-0.2 -0.5,-0.3 0,0 -0.1,0 -0.1,0 -0.2,-0.1 -0.4,-0.1 -0.6,-0.1 0,0 0,0 0,0 -0.5,0 -0.9,0.2 -1.3,0.5 -19.1,18.1 -48.9,20.5 -70.8,5.7 C 83.1,110.7 74.6,97.8 71.7,82.9 68.8,68 71.9,52.8 80.4,40.2 c 8.5,-12.6 21.4,-21.1 36.3,-24 14.9,-2.9 30.1,0.2 42.7,8.7 22.2,15 30.9,43 21.1,67.9 0,0.1 0,0.2 -0.1,0.3 0,0.1 -0.1,0.3 -0.1,0.4 0,0.1 0,0.1 0,0.2 0,0.2 0,0.4 0.1,0.5 0,0 0,0 0,0.1 0.1,0.2 0.2,0.4 0.4,0.5 0,0 0,0 0,0 0.1,0.1 0.3,0.3 0.5,0.4 0.3,0.2 0.6,0.3 1,0.6 z"
       id="path2"
       inkscape:connector-curvature="0"
       style="stroke-width:1.0909754" /><path
       d="m 236,223.7 v -28.4 c 0.1,-2.5 -0.2,-18.2 -23.2,-26 -1.6,-0.5 -38.8,-13.2 -48.2,-16.1 l -2.8,-0.9 -33.8,33.9 -33.9,-33.8 -2.8,0.9 c -9.4,2.9 -46.6,15.5 -48.2,16.1 -23,7.8 -23.3,23.5 -23.2,26 v 27.9 0.5 c 1.9,16.7 13.5,21 19.6,21 0.1,0 0.2,0 0.4,0 H 216 c 6.1,0 18.1,-4.1 20,-21.1 z M 39.8,235.1 c -0.4,0 -8.7,0.1 -10.2,-12.2 v -28.1 c 0,-0.4 -0.3,-10.7 16.7,-16.4 0.4,-0.1 32.8,-11.1 45.2,-15.1 l 36.6,36.5 36.6,-36.5 c 12.4,4 44.8,15 45.2,15.1 16.8,5.6 16.7,15.7 16.7,16.4 v 28.1 c -1.4,11.6 -8.8,12.2 -10.3,12.2 z"
       id="path4"
       inkscape:connector-curvature="0"
       style="stroke-width:1.0909754" /></g></svg>